<svg xmlns="http://www.w3.org/2000/svg" viewBox="0 0 1439.85 463.51"><defs><style>.cls-1{fill:#0d0d0d;}</style></defs><g id="Camada_2"  data-name="Camada 2"><g id="trevo"><path id="_4" data-name="4" class="cls-1" d="M1205.41,449.86a50.09,50.09,0,0,1-.82-9.47,49.22,49.22,0,0,1,5.53-22.17l7.06-10.23L1277,321.17l86.47,59.62,11,7.61a49.41,49.41,0,1,1-73,65.94,49.41,49.41,0,0,1-96.15-4.48Z" transform="translate(-14.48 -39.67)"/><path  class="cls-1" d="M1137.18,245.45a50.09,50.09,0,0,1,9.47-.82,49.27,49.27,0,0,1,22.16,5.53l10.24,7.06,86.82,59.86-59.63,86.47-7.6,11a49.21,49.21,0,0,1-18.29,12.64,49.51,49.51,0,0,1-58.58-17.45,49.43,49.43,0,0,1,10.93-68.17,49.41,49.41,0,0,1,4.48-96.15Z" transform="translate(-14.48 -39.67)"/><path class="cls-1" d="M1346.34,179.35a49.21,49.21,0,0,1-4.71,31.63l-7.06,10.24L1274.72,308l-86.48-59.62-11-7.6a49.41,49.41,0,1,1,73-65.95,49.4,49.4,0,0,1,96.14,4.49Z" transform="translate(-14.48 -39.67)"/><path class="cls-1" d="M1413.85,384.32a50.09,50.09,0,0,1-9.47.82,49.27,49.27,0,0,1-22.16-5.53L1372,372.55l-86.82-59.86,59.63-86.47,7.6-11a49.21,49.21,0,0,1,18.29-12.64A49.51,49.51,0,0,1,1429.26,220a49.43,49.43,0,0,1-10.93,68.17,49.41,49.41,0,0,1-4.48,96.15Z" transform="translate(-14.48 -39.67)"/></g><g id="clover"><path class="cls-1" d="M156.12,342.8q-41.66,0-73.59-17.86a127.37,127.37,0,0,1-50-50.29q-18-32.43-18-76.27T32.93,122.1A129.39,129.39,0,0,1,83.72,71.81Q116,54,157.71,54A165.63,165.63,0,0,1,198,58.62a154.6,154.6,0,0,1,32.34,11.6l-5,43.45a212.82,212.82,0,0,0-31.74-11.61,134.71,134.71,0,0,0-36.31-4.66q-30.54,0-51.08,13.19A82.51,82.51,0,0,0,75.28,146.7q-10.41,22.91-10.41,51.68t10.22,51.67a81.6,81.6,0,0,0,30.55,36.11q20.33,13.18,50.48,13.19a144.38,144.38,0,0,0,36.8-4.36,185.66,185.66,0,0,0,32.44-11.91l5,43.65a182.65,182.65,0,0,1-34.12,11.6A171.66,171.66,0,0,1,156.12,342.8Z" transform="translate(-14.48 -39.67)"/><path class="cls-1" d="M316.61,341.21q-18,0-29.26-6.94A41.34,41.34,0,0,1,271,315.91,59.66,59.66,0,0,1,265.83,291V39.67h44.43V270.78q0,16.08,2,23.31t7.63,9.13q5.65,1.89,17,1.88l-4.77,36.11Z" transform="translate(-14.48 -39.67)"/><path class="cls-1" d="M452.7,341.21q-31.74,0-54.06-13.89a92.11,92.11,0,0,1-34.12-37.09Q352.72,267,352.72,239t11.8-51.38a92.51,92.51,0,0,1,34.12-37.39q22.32-14,54.06-14,31.55,0,54,14a92.34,92.34,0,0,1,34.22,37.39q11.8,23.42,11.8,51.38t-11.8,51.19a91.94,91.94,0,0,1-34.22,37.09Q484.23,341.21,452.7,341.21Zm0-37.3q26.19,0,40.37-17.75T507.25,239q0-29.74-14.18-47.61T452.7,173.58q-26.19,0-40.47,17.85T398,239q0,29.37,14.28,47.12T452.7,303.91Z" transform="translate(-14.48 -39.67)"/><path class="cls-1" d="M638.19,337.24l-75.58-197h45.23l51,143.82,50.59-143.82h45.43l-75.39,197Z" transform="translate(-14.48 -39.67)"/><path class="cls-1" d="M871.48,341.21q-35.31,0-59-14.28t-35.71-37.8q-12-23.5-12-51.67A112.32,112.32,0,0,1,776,187.37a89.45,89.45,0,0,1,32.73-36.7q21.52-13.8,52.27-13.79,27,0,46,10.91a73.07,73.07,0,0,1,29.07,30.05q10,19.16,10,43.75a102.42,102.42,0,0,1-.69,11.6q-.69,6.06-1.88,12.4H810.58q2.77,21.63,12.1,34.32a53.53,53.53,0,0,0,23.21,18.35,78.7,78.7,0,0,0,30,5.65A120.54,120.54,0,0,0,906.5,300,126,126,0,0,0,934,289.43l3.38,36.7a170.35,170.35,0,0,1-28,10.32Q892.72,341.21,871.48,341.21ZM812.57,215.44h88.27a50.27,50.27,0,0,0-4.06-20.14A34.33,34.33,0,0,0,883.88,180q-8.82-5.85-23.11-5.86-20.82,0-32.43,11.31T812.57,215.44Z" transform="translate(-14.48 -39.67)"/><path class="cls-1" d="M980.59,337.24v-197h40.07l2.18,25.19a103,103,0,0,1,24-20.63,54.9,54.9,0,0,1,29.56-8.53,38.45,38.45,0,0,1,8.92,1l-3.57,45a43,43,0,0,0-7.53-1.29q-3.78-.3-7.74-.3a51.05,51.05,0,0,0-24.8,6.15q-11.31,6.15-15.87,14.28V337.24Z" transform="translate(-14.48 -39.67)"/></g><g id="studios"><path class="cls-1" d="M492.2,503.18a114.62,114.62,0,0,1-17.12-1.28,133.41,133.41,0,0,1-15.85-3.29,77.93,77.93,0,0,1-12.11-4.29l2.56-19.88q5.31,2.56,12.85,5.32a120.41,120.41,0,0,0,16.29,4.62,84.35,84.35,0,0,0,17.71,1.87q13.29,0,21.12-4.87t7.82-15.21q0-7.77-3.93-12.74t-11.87-8.52a165.67,165.67,0,0,0-19.83-7.09A140.24,140.24,0,0,1,469,429.9a40.53,40.53,0,0,1-15.3-12.3q-5.76-7.73-5.76-20.53a33.79,33.79,0,0,1,5.66-19.34q5.65-8.42,16.63-13.14t26.92-4.72a99.12,99.12,0,0,1,25,2.95,105.32,105.32,0,0,1,18.75,6.49l-2,19.89a89.2,89.2,0,0,0-21.41-9.55,78,78,0,0,0-21.11-2.85q-12.1,0-20,4.52t-7.93,14.77q0,6.89,3.55,11.27t10.53,7.48a151.5,151.5,0,0,0,17.42,6.25A134.63,134.63,0,0,1,524.59,431q10.33,5.56,15.84,13.69T546,464.79a36.9,36.9,0,0,1-3.35,15.95,32.23,32.23,0,0,1-10,12.11,48.41,48.41,0,0,1-16.78,7.68A93.3,93.3,0,0,1,492.2,503.18Z" transform="translate(-14.48 -39.67)"/><path class="cls-1" d="M594.38,502.4q-9.17,0-14.67-3.35a20.12,20.12,0,0,1-8-8.61,25.33,25.33,0,0,1-2.51-11.08V417.74H552.64L554.22,404h15V380.14l17.71-1.77V404h25.4v13.78h-25.4v50.79q0,9.25,1.09,13.39a6.88,6.88,0,0,0,5.36,5.22q4.29,1.08,13.83,1.08h4.53l-1.38,14.18Z" transform="translate(-14.48 -39.67)"/><path class="cls-1" d="M662.1,502.4q-11.33,0-19.3-4.58a29.17,29.17,0,0,1-12.15-13.93q-4.18-9.34-4.19-23.82V404h17.72v51.19q0,15.36,5.27,23.43t17.17,8.07a30.42,30.42,0,0,0,15.16-3.94q7-3.93,9.65-12.6l-2.56,9.65V404h17.72v96.47H690.84l-3.55-18.9,4.73,3.15q-4.83,9-11.76,13.34T662.1,502.4Z" transform="translate(-14.48 -39.67)"/><path class="cls-1" d="M768.79,502.4a38.88,38.88,0,0,1-22.24-6.7,47.54,47.54,0,0,1-15.8-18,54.18,54.18,0,0,1-5.86-25.3,58,58,0,0,1,5.37-24.8A46.38,46.38,0,0,1,745.47,409q9.84-7,23.32-7a43.85,43.85,0,0,1,18.66,4.19q9,4.19,14.61,13.93l-3.74,2.56V352.78H816V500.43H800.29L797,480l4.52,3.15a29.46,29.46,0,0,1-13.28,14.42A40.34,40.34,0,0,1,768.79,502.4Zm3.15-15.75a28.1,28.1,0,0,0,13.24-3.45,26.92,26.92,0,0,0,10.83-11q4.28-7.53,4.28-19.84,0-11.42-4.28-19.14a30,30,0,0,0-10.83-11.62,25.67,25.67,0,0,0-13.24-3.89,26.51,26.51,0,0,0-15.55,4.53,28.87,28.87,0,0,0-9.94,12.36A43.59,43.59,0,0,0,743,452.39a41.74,41.74,0,0,0,3.45,17.13A30,30,0,0,0,756.39,482,25.9,25.9,0,0,0,771.94,486.65Z" transform="translate(-14.48 -39.67)"/><path class="cls-1" d="M839.86,382.31V362.62h17.72v19.69Zm0,118.12V404h17.72v96.47Z" transform="translate(-14.48 -39.67)"/><path class="cls-1" d="M923.72,502.4q-15.15,0-25.83-6.75a44.3,44.3,0,0,1-16.34-18.11,59.58,59.58,0,0,1,0-50.69,44.3,44.3,0,0,1,16.34-18.11Q908.56,402,923.72,402t25.79,6.75a44.28,44.28,0,0,1,16.39,18.11,59.58,59.58,0,0,1,0,50.69,44.28,44.28,0,0,1-16.39,18.11Q938.79,502.4,923.72,502.4Zm0-15.75q14.37,0,22-9.11t7.68-25.34q0-16.24-7.68-25.35t-22-9.11q-14.26,0-22,9.11T894,452.2q0,16.23,7.72,25.34T923.72,486.65Z" transform="translate(-14.48 -39.67)"/><path class="cls-1" d="M1017.23,502.4q-12.79,0-21.21-3.06t-11.86-5.41l2.16-17.13q3.15,2.76,11.13,6.3t19,3.55q9.36,0,14.33-3.15a10,10,0,0,0,5-8.86,10.79,10.79,0,0,0-3.2-8.12,23.66,23.66,0,0,0-7.68-4.92,74.46,74.46,0,0,0-8.42-2.91,135.93,135.93,0,0,1-13.63-4.48A30,30,0,0,1,991,446.09q-4.83-5.41-4.82-15.16a29.39,29.39,0,0,1,3.54-14q3.54-6.65,11.52-10.78t21.16-4.14q9.64,0,15.7,2a77.32,77.32,0,0,1,10.48,4.28l-2.16,16.15a40.25,40.25,0,0,0-9.85-6,34.28,34.28,0,0,0-13.78-2.46q-8.26,0-13.48,3.1T1004,429q0,6.78,5.56,9.64a108.64,108.64,0,0,0,16.88,6.3,80,80,0,0,1,8.22,2.86,43.32,43.32,0,0,1,9.11,5,25.36,25.36,0,0,1,7.33,8.22,25.07,25.07,0,0,1,2.91,12.64A31,31,0,0,1,1051,486.7q-3,6.65-11,11.17T1017.23,502.4Z" transform="translate(-14.48 -39.67)"/></g></g> </svg>